<svg width="66" height="52" viewBox="0 0 66 52" fill="none" xmlns="http://www.w3.org/2000/svg">
<path fill-rule="evenodd" clip-rule="evenodd" d="M23.3041 31.0672C23.6027 30.9935 23.9181 31.0814 24.1355 31.299L29.7874 36.9563L36.7365 43.5275C37.2267 43.9911 37.9177 44.1763 38.5741 44.0199L47.8778 41.8036L57.0431 39.0711C57.6898 38.8783 58.1956 38.3725 58.3884 37.7259L61.1209 28.5605L63.3372 19.2567C63.4936 18.6004 63.3084 17.9094 62.8448 17.4191L56.2736 10.47V10.47C55.7604 9.9497 54.8974 10.0381 54.5003 10.6516L52.5838 13.6123C52.4262 13.8556 52.4648 14.1767 52.6754 14.3758V14.3758L57.2593 19.2234C57.7229 19.7136 57.908 20.4046 57.7517 21.061L56.2056 27.551L54.2995 33.9447C54.1067 34.5913 53.6009 35.0971 52.9543 35.2899L46.5607 37.196L40.0707 38.742C39.4143 38.8984 38.7233 38.7132 38.233 38.2496L33.3854 33.6657L27.3617 27.6419C27.2832 27.5635 27.2552 27.4478 27.2889 27.3422V27.3422L27.8465 25.4145C28.0395 24.7472 27.8724 24.0276 27.4052 23.5135L26.0554 22.0286L24.6647 20.5819C24.1833 20.0812 23.4766 19.866 22.7979 20.0137L20.837 20.4401L18.8888 20.9211C18.2144 21.0876 17.6747 21.5921 17.4632 22.2538L16.8521 24.1651L16.2946 26.0929C16.1016 26.7602 16.2687 27.4798 16.7359 27.9938L18.0856 29.4787L19.4763 30.9254C19.9577 31.4262 20.6645 31.6413 21.3433 31.4937L23.3041 31.0672V31.0672Z" fill="black"/>
<path fill-rule="evenodd" clip-rule="evenodd" d="M42.7018 20.4631C42.4032 20.5368 42.0878 20.4489 41.8704 20.2313L36.2185 14.574L29.2694 8.00275C28.7791 7.53915 28.0882 7.354 27.4318 7.51036L18.128 9.72669L8.96271 12.4592C8.3161 12.652 7.81027 13.1578 7.61749 13.8044L4.88494 22.9698L2.66866 32.2735C2.5123 32.9299 2.69745 33.6209 3.16105 34.1111L9.73223 41.0603V41.0603C10.2455 41.5806 11.1085 41.4922 11.5056 40.8787L13.4221 37.918C13.5796 37.6747 13.5411 37.3536 13.3305 37.1544V37.1544L8.74657 32.3069C8.28296 31.8166 8.09782 31.1257 8.25418 30.4693L9.80023 23.9793L11.7064 17.5856C11.8991 16.939 12.405 16.4332 13.0516 16.2404L19.4452 14.3343L25.9352 12.7883C26.5916 12.6319 27.2825 12.817 27.7728 13.2806L32.6204 17.8646L38.6442 23.8883C38.7226 23.9668 38.7507 24.0825 38.7169 24.1881V24.1881L38.1594 26.1158C37.9664 26.7831 38.1334 27.5027 38.6007 28.0167L39.9504 29.5017L41.3411 30.9483C41.8225 31.4491 42.5293 31.6642 43.208 31.5166L45.1689 31.0902L47.1171 30.6091C47.7914 30.4426 48.3311 29.9381 48.5427 29.2765L49.1537 27.3651L49.7113 25.4374C49.9043 24.7701 49.7372 24.0505 49.27 23.5365L47.9202 22.0516L46.5295 20.6049C46.0481 20.1041 45.3414 19.889 44.6626 20.0366L42.7018 20.4631V20.4631Z" fill="black"/>
</svg>
